<?xml version="1.0" standalone="no"?>
<svg version="1.0" xmlns="http://www.w3.org/2000/svg"
 width="738.000000pt" height="720.000000pt" viewBox="0 0 738.000000 720.000000"
 preserveAspectRatio="xMidYMid meet">
<metadata>
Created by potrace 1.14, written by Peter Selinger 2001-2017
</metadata>
<g transform="translate(0.000000,720.000000) scale(0.100000,-0.100000)"
fill="#000000" stroke="none">
<path d="M3370 7189 c-1072 -121 -1858 -1091 -1749 -2160 89 -882 754 -1597
1629 -1754 127 -23 430 -31 557 -16 912 112 1620 810 1738 1714 78 602 -131
1213 -565 1647 -322 323 -735 520 -1192 569 -111 13 -308 12 -418 0z"/>
<path d="M4920 3375 c-291 -215 -658 -361 -1045 -417 -135 -19 -474 -16 -615
6 -344 53 -653 172 -936 361 l-122 82 -108 -22 c-398 -81 -793 -269 -1119
-532 -120 -97 -326 -306 -417 -423 -224 -290 -397 -645 -483 -996 -88 -356
-98 -809 -24 -1050 86 -282 266 -396 599 -381 154 7 331 37 739 127 332 73
572 116 806 147 129 17 243 18 1495 18 1252 0 1366 -1 1495 -18 233 -30 464
-73 803 -147 416 -90 588 -120 742 -127 333 -15 513 99 599 381 74 241 64 694
-24 1050 -86 351 -259 706 -483 996 -91 117 -296 326 -417 423 -353 285 -781
478 -1220 551 -193 32 -180 33 -265 -29z"/>
</g>
</svg>
